<svg width="280" height="289" viewBox="0 0 280 289" fill="none" xmlns="http://www.w3.org/2000/svg">
<path d="M122.665 239.007C121.108 237.753 128.371 212.788 137.444 207.897C146.518 203.006 160.639 231.709 160.639 231.709C160.639 231.709 155.642 231.537 154.691 235.907C153.74 240.277 159.379 259.582 157.346 260.513C155.313 261.443 147.382 250.564 146.042 254.62C144.702 258.677 144.924 287.101 140.24 286.54C135.557 285.978 131.425 234.506 130.647 233.879C129.868 233.251 124.223 240.261 122.665 239.007Z" fill="#FF890A"/>
<path d="M137.444 207.897L136.733 206.577L137.444 207.897ZM140.24 286.54L140.062 288.029L140.24 286.54ZM146.042 254.62L144.618 254.15L146.042 254.62ZM154.691 235.907L156.157 236.226L156.157 236.226L154.691 235.907ZM160.639 231.709L160.587 233.208L163.091 233.294L161.985 231.047L160.639 231.709ZM136.733 206.577C134.121 207.985 131.796 210.728 129.821 213.842C127.822 216.994 126.072 220.705 124.672 224.267C123.271 227.831 122.203 231.292 121.58 233.965C121.271 235.295 121.062 236.471 120.986 237.387C120.949 237.838 120.938 238.286 120.985 238.682C121.009 238.88 121.053 239.114 121.141 239.349C121.225 239.574 121.391 239.907 121.725 240.175L123.606 237.839C123.842 238.029 123.928 238.237 123.949 238.293C123.974 238.36 123.971 238.382 123.964 238.327C123.951 238.217 123.946 237.995 123.976 237.634C124.035 236.926 124.208 235.908 124.502 234.645C125.087 232.131 126.11 228.81 127.464 225.364C128.819 221.917 130.489 218.391 132.355 215.448C134.246 212.466 136.232 210.255 138.156 209.217L136.733 206.577ZM121.725 240.175C122.415 240.731 123.213 240.709 123.761 240.583C124.3 240.458 124.814 240.192 125.25 239.922C126.133 239.375 127.096 238.555 127.946 237.798C128.848 236.994 129.609 236.275 130.247 235.747C130.567 235.482 130.769 235.339 130.874 235.281C130.932 235.248 130.874 235.291 130.734 235.318C130.596 235.346 130.141 235.397 129.706 235.047L131.587 232.71C131.055 232.282 130.464 232.314 130.157 232.375C129.848 232.435 129.587 232.563 129.414 232.66C129.055 232.86 128.676 233.152 128.333 233.437C127.644 234.007 126.751 234.844 125.95 235.558C125.097 236.318 124.308 236.977 123.67 237.371C123.346 237.572 123.157 237.643 123.086 237.659C123.024 237.674 123.305 237.596 123.606 237.839L121.725 240.175ZM129.706 235.047C129.508 234.888 129.405 234.719 129.372 234.662C129.328 234.588 129.304 234.529 129.294 234.505C129.275 234.458 129.271 234.437 129.28 234.469C129.295 234.525 129.32 234.641 129.355 234.833C129.423 235.21 129.506 235.768 129.604 236.497C129.798 237.95 130.04 240.001 130.325 242.465C130.895 247.382 131.632 253.907 132.492 260.43C133.351 266.945 134.337 273.502 135.409 278.479C135.942 280.958 136.51 283.108 137.115 284.68C137.415 285.46 137.753 286.173 138.143 286.727C138.493 287.223 139.111 287.915 140.062 288.029L140.419 285.05C140.784 285.094 140.821 285.318 140.595 284.998C140.411 284.737 140.178 284.286 139.915 283.603C139.395 282.251 138.866 280.282 138.341 277.847C137.297 272.995 136.323 266.539 135.466 260.038C134.61 253.544 133.876 247.048 133.306 242.12C133.021 239.661 132.776 237.583 132.577 236.099C132.478 235.36 132.388 234.747 132.307 234.301C132.268 234.082 132.225 233.873 132.179 233.698C132.156 233.613 132.124 233.5 132.077 233.384C132.053 233.326 132.015 233.239 131.959 233.143C131.913 233.064 131.797 232.879 131.587 232.71L129.706 235.047ZM140.062 288.029C141.553 288.208 142.526 287.155 143.061 286.275C143.625 285.347 144.05 284.09 144.39 282.722C145.078 279.953 145.539 276.228 145.888 272.45C146.239 268.661 146.486 264.71 146.724 261.51C146.845 259.899 146.963 258.482 147.09 257.348C147.223 256.169 147.354 255.43 147.466 255.091L144.618 254.15C144.395 254.825 144.239 255.861 144.109 257.012C143.975 258.206 143.853 259.671 143.733 261.286C143.49 264.539 143.248 268.419 142.901 272.174C142.553 275.938 142.108 279.468 141.478 281.998C141.16 283.278 140.823 284.182 140.498 284.716C140.143 285.299 140.098 285.012 140.419 285.05L140.062 288.029ZM147.466 255.091C147.528 254.903 147.499 255.122 147.213 255.197C147.061 255.238 147.095 255.159 147.471 255.328C148.201 255.658 149.222 256.456 150.448 257.525C151.586 258.517 152.895 259.738 153.983 260.594C154.533 261.025 155.116 261.439 155.678 261.711C156.15 261.939 157.057 262.295 157.97 261.877L156.722 259.149C157.127 258.964 157.341 259.183 156.985 259.01C156.719 258.882 156.338 258.629 155.837 258.235C154.825 257.439 153.687 256.369 152.42 255.264C151.242 254.237 149.902 253.134 148.705 252.594C148.116 252.328 147.296 252.072 146.445 252.297C145.461 252.558 144.891 253.324 144.618 254.15L147.466 255.091ZM157.97 261.877C158.623 261.578 158.918 261.008 159.05 260.645C159.19 260.262 159.248 259.846 159.273 259.469C159.325 258.705 159.262 257.749 159.146 256.721C158.91 254.647 158.414 251.953 157.898 249.221C157.377 246.461 156.832 243.646 156.474 241.243C156.296 240.044 156.168 238.975 156.112 238.087C156.055 237.17 156.084 236.561 156.157 236.226L153.225 235.588C153.06 236.345 153.057 237.296 153.118 238.274C153.181 239.283 153.322 240.446 153.507 241.685C153.875 244.161 154.435 247.049 154.95 249.778C155.471 252.535 155.944 255.115 156.165 257.059C156.276 258.04 156.313 258.78 156.28 259.267C156.272 259.382 156.261 259.47 156.25 259.534C156.238 259.599 156.229 259.623 156.232 259.617C156.233 259.614 156.256 259.549 156.324 259.461C156.396 259.366 156.524 259.239 156.722 259.149L157.97 261.877ZM156.157 236.226C156.49 234.693 157.488 233.964 158.539 233.577C159.077 233.379 159.605 233.285 160.004 233.242C160.201 233.221 160.36 233.213 160.464 233.21C160.516 233.208 160.553 233.208 160.575 233.208C160.585 233.208 160.592 233.208 160.594 233.208C160.595 233.209 160.595 233.209 160.594 233.208C160.594 233.208 160.593 233.208 160.592 233.208C160.591 233.208 160.59 233.208 160.59 233.208C160.589 233.208 160.589 233.208 160.589 233.208C160.588 233.208 160.587 233.208 160.639 231.709C160.691 230.21 160.69 230.21 160.689 230.21C160.689 230.21 160.688 230.21 160.688 230.21C160.687 230.21 160.686 230.21 160.684 230.21C160.682 230.21 160.679 230.21 160.676 230.21C160.67 230.209 160.663 230.209 160.655 230.209C160.638 230.209 160.617 230.208 160.59 230.208C160.538 230.208 160.468 230.208 160.381 230.211C160.208 230.216 159.969 230.228 159.682 230.259C159.115 230.32 158.334 230.456 157.504 230.762C155.819 231.381 153.842 232.752 153.225 235.588L156.157 236.226ZM160.639 231.709C161.985 231.047 161.985 231.047 161.984 231.046C161.984 231.046 161.984 231.045 161.984 231.045C161.983 231.044 161.982 231.042 161.981 231.04C161.979 231.036 161.977 231.03 161.973 231.023C161.965 231.008 161.955 230.986 161.941 230.958C161.912 230.901 161.871 230.819 161.817 230.711C161.709 230.497 161.55 230.186 161.345 229.792C160.935 229.006 160.341 227.89 159.599 226.567C158.119 223.926 156.041 220.441 153.667 217.1C151.308 213.78 148.59 210.506 145.812 208.366C143.096 206.274 139.825 204.91 136.733 206.577L138.156 209.217C139.601 208.439 141.497 208.829 143.981 210.743C146.403 212.609 148.916 215.593 151.222 218.838C153.512 222.061 155.532 225.446 156.982 228.034C157.706 229.326 158.286 230.414 158.684 231.178C158.883 231.56 159.036 231.861 159.139 232.065C159.191 232.167 159.23 232.244 159.256 232.296C159.269 232.322 159.278 232.341 159.284 232.354C159.288 232.36 159.29 232.365 159.291 232.368C159.292 232.369 159.292 232.37 159.293 232.371C159.293 232.371 159.293 232.371 159.293 232.371C159.293 232.371 159.293 232.371 160.639 231.709Z" fill="#AF001E"/>
<path d="M174.044 141.718C201.284 170.071 196.716 206.836 196.716 206.836C178.09 184.319 163.238 171.364 148.574 168.07C148.574 168.07 144.44 193.629 139.68 192.365C134.921 191.1 131.616 168.539 131.616 168.539C117.734 172.335 102.842 184.384 84.1226 204.762C84.1226 204.762 74.7399 183.726 105.785 145.172C101.154 115.548 104.349 88.4273 110.253 65.9578C110.253 65.9578 119.33 59.7862 138.539 59.8472C157.749 59.9081 169.443 66.115 169.443 66.115C173.755 87.1214 176.294 112.032 174.044 141.718Z" fill="#FFFFE4"/>
<path d="M174.044 141.718L172.549 141.605L172.498 142.274L172.963 142.757L174.044 141.718ZM196.716 206.836L195.56 207.792L197.776 210.471L198.205 207.021L196.716 206.836ZM84.1226 204.762L82.7526 205.373L83.6827 207.458L85.2272 205.777L84.1226 204.762ZM105.785 145.172L106.953 146.112L107.37 145.596L107.267 144.94L105.785 145.172ZM110.253 65.9578L109.409 64.7174L108.945 65.0333L108.802 65.5766L110.253 65.9578ZM169.443 66.115L170.912 65.8134L170.77 65.1213L170.146 64.7901L169.443 66.115ZM172.963 142.757C186.321 156.662 191.891 172.638 194.118 185.172C195.232 191.437 195.507 196.829 195.504 200.647C195.503 202.556 195.432 204.069 195.363 205.1C195.328 205.615 195.293 206.009 195.268 206.271C195.255 206.402 195.245 206.5 195.238 206.564C195.234 206.596 195.231 206.619 195.23 206.634C195.229 206.641 195.228 206.646 195.228 206.649C195.228 206.65 195.228 206.651 195.228 206.652C195.228 206.652 195.228 206.652 195.228 206.652C195.228 206.651 195.228 206.651 196.716 206.836C198.205 207.021 198.205 207.02 198.205 207.019C198.205 207.019 198.205 207.018 198.205 207.017C198.206 207.015 198.206 207.012 198.206 207.009C198.207 207.003 198.208 206.995 198.209 206.984C198.212 206.963 198.215 206.933 198.219 206.895C198.228 206.818 198.24 206.706 198.254 206.561C198.282 206.271 198.319 205.848 198.356 205.302C198.43 204.211 198.503 202.631 198.504 200.649C198.507 196.689 198.222 191.117 197.072 184.647C194.773 171.71 189.007 155.128 175.126 140.679L172.963 142.757ZM84.1226 204.762C85.4925 204.151 85.493 204.152 85.4935 204.153C85.4936 204.153 85.4941 204.155 85.4943 204.155C85.4948 204.156 85.4951 204.157 85.4953 204.157C85.4957 204.158 85.4955 204.158 85.4948 204.156C85.4934 204.153 85.4899 204.145 85.4844 204.131C85.4735 204.105 85.4547 204.058 85.4297 203.991C85.3797 203.857 85.3046 203.643 85.2163 203.35C85.0398 202.764 84.8105 201.86 84.6243 200.645C84.2523 198.218 84.0507 194.536 84.7948 189.65C86.2822 179.885 91.5616 165.227 106.953 146.112L104.617 144.231C88.9636 163.67 83.4116 178.808 81.829 189.199C81.0381 194.391 81.2419 198.379 81.6589 201.1C81.8673 202.459 82.1284 203.5 82.3438 204.215C82.4514 204.573 82.5475 204.848 82.6198 205.042C82.6559 205.138 82.6861 205.214 82.7088 205.27C82.7201 205.297 82.7295 205.32 82.7369 205.337C82.7406 205.345 82.7438 205.353 82.7464 205.359C82.7477 205.362 82.7489 205.364 82.7499 205.367C82.7505 205.368 82.7511 205.37 82.7514 205.37C82.752 205.372 82.7526 205.373 84.1226 204.762ZM107.267 144.94C102.674 115.561 105.841 88.6522 111.703 66.339L108.802 65.5766C102.857 88.2025 99.6338 115.535 104.303 145.403L107.267 144.94ZM167.974 66.4166C172.261 87.3018 174.787 112.073 172.549 141.605L175.54 141.832C177.802 111.992 175.25 86.941 170.912 65.8134L167.974 66.4166ZM110.253 65.9578C111.096 67.1983 111.095 67.1987 111.095 67.199C111.095 67.1991 111.094 67.1994 111.094 67.1996C111.093 67.2 111.093 67.2002 111.093 67.2004C111.092 67.2007 111.092 67.2007 111.093 67.2003C111.094 67.1995 111.098 67.1972 111.103 67.1936C111.114 67.1862 111.134 67.1732 111.163 67.1549C111.221 67.1183 111.314 67.0605 111.443 66.9846C111.7 66.8327 112.1 66.6082 112.644 66.3351C113.732 65.789 115.399 65.0482 117.661 64.3046C122.182 62.8183 129.094 61.3172 138.534 61.3472L138.544 58.3472C128.775 58.3162 121.544 59.8704 116.724 61.4547C114.315 62.2464 112.512 63.0446 111.298 63.6538C110.691 63.9583 110.232 64.2156 109.918 64.401C109.761 64.4937 109.64 64.5684 109.555 64.6222C109.513 64.6491 109.48 64.6707 109.455 64.6867C109.443 64.6947 109.433 64.7013 109.426 64.7064C109.422 64.709 109.418 64.7112 109.416 64.713C109.414 64.7139 109.413 64.7147 109.412 64.7155C109.411 64.7158 109.411 64.7163 109.411 64.7165C109.41 64.7169 109.409 64.7174 110.253 65.9578ZM138.534 61.3472C147.978 61.3771 155.563 62.9178 160.773 64.4435C163.378 65.2063 165.388 65.965 166.738 66.5285C167.413 66.8102 167.923 67.043 168.259 67.2029C168.427 67.2829 168.552 67.3446 168.633 67.3851C168.673 67.4054 168.702 67.4203 168.72 67.4296C168.729 67.4342 168.735 67.4374 168.738 67.4392C168.74 67.44 168.741 67.4405 168.741 67.4407C168.741 67.4407 168.741 67.4407 168.741 67.4406C168.741 67.4405 168.741 67.4404 168.74 67.4403C168.74 67.4402 168.74 67.44 169.443 66.115C170.146 64.7901 170.146 64.7898 170.145 64.7895C170.145 64.7894 170.144 64.7891 170.144 64.7888C170.143 64.7883 170.142 64.7878 170.141 64.7871C170.138 64.7857 170.135 64.7839 170.131 64.7818C170.123 64.7776 170.112 64.7719 170.098 64.7648C170.07 64.7506 170.031 64.7307 169.981 64.7054C169.881 64.655 169.736 64.5833 169.547 64.4934C169.169 64.3137 168.615 64.0611 167.893 63.7599C166.45 63.1577 164.336 62.3609 161.616 61.5644C156.176 59.9714 148.31 58.3782 138.544 58.3472L138.534 61.3472ZM131.221 167.092C116.887 171.012 101.742 183.364 83.0179 203.747L85.2272 205.777C103.942 185.404 118.582 173.658 132.012 169.986L131.221 167.092ZM131.616 168.539C130.132 168.756 130.132 168.757 130.132 168.757C130.132 168.757 130.132 168.758 130.132 168.758C130.132 168.759 130.133 168.76 130.133 168.762C130.133 168.765 130.134 168.769 130.135 168.775C130.137 168.787 130.139 168.804 130.142 168.826C130.149 168.87 130.159 168.935 130.172 169.02C130.198 169.189 130.236 169.436 130.287 169.749C130.387 170.376 130.537 171.272 130.731 172.35C131.118 174.503 131.686 177.395 132.407 180.335C133.124 183.262 134.006 186.293 135.033 188.698C135.545 189.897 136.118 191 136.762 191.87C137.38 192.707 138.209 193.526 139.295 193.815L140.066 190.915C139.962 190.888 139.646 190.725 139.173 190.086C138.725 189.48 138.259 188.613 137.792 187.52C136.861 185.339 136.024 182.492 135.32 179.621C134.62 176.762 134.064 173.935 133.683 171.818C133.493 170.761 133.347 169.884 133.248 169.273C133.199 168.967 133.162 168.728 133.137 168.565C133.125 168.484 133.115 168.423 133.109 168.382C133.106 168.361 133.104 168.346 133.102 168.336C133.102 168.331 133.101 168.327 133.101 168.324C133.101 168.323 133.1 168.322 133.1 168.322C133.1 168.322 133.1 168.322 133.1 168.322C133.1 168.321 133.1 168.322 131.616 168.539ZM197.872 205.88C179.255 183.374 164.117 170.024 148.902 166.607L148.245 169.534C162.36 172.705 176.924 185.264 195.56 207.792L197.872 205.88ZM148.902 166.607C143.041 165.29 137.207 165.455 131.221 167.092L132.012 169.986C137.544 168.473 142.88 168.329 148.245 169.534L148.902 166.607ZM139.295 193.815C140.645 194.173 141.759 193.487 142.498 192.736C143.241 191.981 143.878 190.91 144.432 189.748C145.552 187.397 146.543 184.209 147.363 181.071C148.188 177.913 148.86 174.724 149.326 172.331C149.559 171.132 149.74 170.13 149.864 169.426C149.926 169.074 149.973 168.796 150.005 168.606C150.021 168.511 150.033 168.438 150.042 168.388C150.046 168.363 150.049 168.344 150.051 168.331C150.052 168.324 150.053 168.319 150.053 168.316C150.054 168.314 150.054 168.313 150.054 168.312C150.054 168.311 150.054 168.311 150.054 168.311C150.054 168.31 150.054 168.31 148.574 168.07C147.093 167.831 147.093 167.831 147.093 167.831C147.093 167.831 147.093 167.831 147.093 167.832C147.093 167.832 147.092 167.833 147.092 167.835C147.092 167.837 147.091 167.842 147.09 167.847C147.088 167.859 147.085 167.876 147.081 167.9C147.074 167.947 147.062 168.017 147.047 168.108C147.016 168.292 146.97 168.562 146.909 168.907C146.788 169.596 146.61 170.58 146.381 171.758C145.922 174.117 145.264 177.239 144.46 180.313C143.652 183.407 142.717 186.371 141.724 188.457C141.221 189.513 140.754 190.231 140.36 190.632C139.961 191.037 139.905 190.873 140.066 190.915L139.295 193.815Z" fill="#AF001E"/>
<path d="M140.055 2.16246C134.895 2.98969 120.444 27.1508 110.248 65.955C110.248 65.955 119.326 59.7834 138.535 59.8444C157.744 59.9053 169.439 66.1122 169.439 66.1122C162.501 32.3179 145.214 1.33523 140.055 2.16246Z" fill="#EA446C" stroke="#AF001E" stroke-width="3"/>
<path d="M117.82 69.6369C119.13 54.4741 130.693 28.5117 137.829 14.4927" stroke="white" stroke-opacity="0.4" stroke-width="7" stroke-linecap="round"/>
</svg>
